<svg width="50" height="50" viewBox="0 0 50 50" fill="none" xmlns="http://www.w3.org/2000/svg">
<g id="Icono/Camara">
<path id="Vector" d="M4.16663 39.5833V18.75C4.16663 16.4488 6.03211 14.5833 8.33329 14.5833H9.37496C10.6864 14.5833 11.9214 13.9659 12.7083 12.9167L17.3333 6.75C17.5694 6.43525 17.9399 6.25 18.3333 6.25H31.6666C32.0602 6.25 32.4306 6.43525 32.6666 6.75L37.2916 12.9167C38.0785 13.9659 39.3135 14.5833 40.625 14.5833H41.6666C43.9679 14.5833 45.8333 16.4488 45.8333 18.75V39.5833C45.8333 41.8846 43.9679 43.75 41.6666 43.75H8.33329C6.03211 43.75 4.16663 41.8846 4.16663 39.5833Z" stroke="black" stroke-width="1.5" stroke-linecap="round" stroke-linejoin="round"/>
<path id="Vector_2" d="M25 35.4167C29.6023 35.4167 33.3333 31.6856 33.3333 27.0833C33.3333 22.481 29.6023 18.75 25 18.75C20.3976 18.75 16.6666 22.481 16.6666 27.0833C16.6666 31.6856 20.3976 35.4167 25 35.4167Z" stroke="black" stroke-width="1.5" stroke-linecap="round" stroke-linejoin="round"/>
</g>
</svg>
