<svg width="50" height="50" viewBox="0 0 50 50" fill="none" xmlns="http://www.w3.org/2000/svg">
<g id="Icono/Confuso">
<path id="Vector" d="M4.16663 25C4.16663 36.5058 13.494 45.8333 25 45.8333C36.5058 45.8333 45.8333 36.5058 45.8333 25C45.8333 13.4941 36.5058 4.16666 25 4.16666" stroke="black" stroke-width="1.5" stroke-linecap="round" stroke-linejoin="round"/>
<path id="Vector_2" d="M23.9584 32.2917C23.9584 32.2917 27.0834 28.125 33.3334 28.125C39.5834 28.125 42.7084 32.2917 42.7084 32.2917" stroke="black" stroke-width="1.5" stroke-linecap="round" stroke-linejoin="round"/>
<path id="Vector_3" d="M6.25 8.33335C6.25 2.59556 14.5833 2.59543 14.5833 8.3332C14.5833 12.4316 10.4167 11.7485 10.4167 16.6666" stroke="black" stroke-width="1.5" stroke-linecap="round" stroke-linejoin="round"/>
<path id="Vector_4" d="M10.4166 22.9375L10.4375 22.9144" stroke="black" stroke-width="1.5" stroke-linecap="round" stroke-linejoin="round"/>
<path id="Vector_5" d="M36.4583 18.75C35.8831 18.75 35.4166 18.2836 35.4166 17.7083C35.4166 17.133 35.8831 16.6667 36.4583 16.6667C37.0335 16.6667 37.5 17.133 37.5 17.7083C37.5 18.2836 37.0335 18.75 36.4583 18.75Z" fill="black" stroke="black" stroke-width="1.5" stroke-linecap="round" stroke-linejoin="round"/>
<path id="Vector_6" d="M21.875 18.75C21.2998 18.75 20.8334 18.2836 20.8334 17.7083C20.8334 17.133 21.2998 16.6667 21.875 16.6667C22.4502 16.6667 22.9167 17.133 22.9167 17.7083C22.9167 18.2836 22.4502 18.75 21.875 18.75Z" fill="black" stroke="black" stroke-width="1.5" stroke-linecap="round" stroke-linejoin="round"/>
</g>
</svg>
