<svg width="50" height="50" viewBox="0 0 50 50" fill="none" xmlns="http://www.w3.org/2000/svg">
<g id="Icono/Documentos">
<path id="Vector" d="M14.5834 37.5H21.875H29.1667" stroke="black" stroke-width="1.5" stroke-linecap="round" stroke-linejoin="round"/>
<path id="Vector_2" d="M14.5834 29.1667H15.625H16.6667" stroke="black" stroke-width="1.5" stroke-linecap="round" stroke-linejoin="round"/>
<path id="Vector_3" d="M14.5834 20.8333H17.7084H20.8334" stroke="black" stroke-width="1.5" stroke-linecap="round" stroke-linejoin="round"/>
<path id="Vector_4" d="M14.5834 4.16667H34.375L43.75 13.5417V39.5833" stroke="black" stroke-width="1.5" stroke-linecap="round" stroke-linejoin="round"/>
<path id="Vector_5" d="M6.25 42.7083V13.5417C6.25 11.8158 7.6491 10.4167 9.375 10.4167H29.6906C30.0221 10.4167 30.34 10.5484 30.5744 10.7828L37.134 17.3422C37.3683 17.5767 37.5 17.8946 37.5 18.2261V42.7083C37.5 44.4342 36.1008 45.8333 34.375 45.8333H9.375C7.6491 45.8333 6.25 44.4342 6.25 42.7083Z" stroke="black" stroke-width="1.5" stroke-linecap="round" stroke-linejoin="round"/>
<path id="Vector_6" d="M29.1666 10.4167V17.5C29.1666 18.1904 29.7262 18.75 30.4166 18.75H37.5" stroke="black" stroke-width="1.5" stroke-linecap="round" stroke-linejoin="round"/>
</g>
</svg>
