<svg width="50" height="50" viewBox="0 0 50 50" fill="none" xmlns="http://www.w3.org/2000/svg">
<g id="Icono/Feliz">
<path id="Vector" d="M25 45.8333C13.4941 45.8333 4.16669 36.5058 4.16669 25C4.16669 13.4941 13.4941 4.16666 25 4.16666C36.5059 4.16666 45.8334 13.4941 45.8334 25C45.8334 36.5058 36.5059 45.8333 25 45.8333Z" stroke="black" stroke-width="1.5" stroke-linecap="round" stroke-linejoin="round"/>
<path id="Vector_2" d="M34.375 30.2083C34.375 30.2083 31.25 34.375 25 34.375C18.75 34.375 15.625 30.2083 15.625 30.2083" stroke="black" stroke-width="1.5" stroke-linecap="round" stroke-linejoin="round"/>
<path id="Vector_3" d="M32.2917 18.75C31.7165 18.75 31.25 18.2836 31.25 17.7083C31.25 17.133 31.7165 16.6667 32.2917 16.6667C32.8669 16.6667 33.3333 17.133 33.3333 17.7083C33.3333 18.2836 32.8669 18.75 32.2917 18.75Z" fill="black" stroke="black" stroke-width="1.5" stroke-linecap="round" stroke-linejoin="round"/>
<path id="Vector_4" d="M17.7084 18.75C17.1331 18.75 16.6667 18.2836 16.6667 17.7083C16.6667 17.133 17.1331 16.6667 17.7084 16.6667C18.2836 16.6667 18.75 17.133 18.75 17.7083C18.75 18.2836 18.2836 18.75 17.7084 18.75Z" fill="black" stroke="black" stroke-width="1.5" stroke-linecap="round" stroke-linejoin="round"/>
</g>
</svg>
