<svg width="50" height="50" viewBox="0 0 50 50" fill="none" xmlns="http://www.w3.org/2000/svg">
<g id="Icono/Home">
<path id="Vector" d="M28.9583 37.5H21.0417C20.3513 37.5 19.7917 36.9404 19.7917 36.25V31.4583C19.7917 30.7679 19.232 30.2083 18.5417 30.2083H13.75C13.0596 30.2083 12.5 29.6487 12.5 28.9583V21.0417C12.5 20.3513 13.0596 19.7917 13.75 19.7917H18.5417C19.232 19.7917 19.7917 19.232 19.7917 18.5417V13.75C19.7917 13.0596 20.3513 12.5 21.0417 12.5H28.9583C29.6487 12.5 30.2083 13.0596 30.2083 13.75V18.5417C30.2083 19.232 30.7679 19.7917 31.4583 19.7917H36.25C36.9404 19.7917 37.5 20.3513 37.5 21.0417V28.9583C37.5 29.6487 36.9404 30.2083 36.25 30.2083H31.4583C30.7679 30.2083 30.2083 30.7679 30.2083 31.4583V36.25C30.2083 36.9404 29.6487 37.5 28.9583 37.5Z" stroke="black" stroke-width="1.5"/>
<path id="Vector_2" d="M25 45.8333C36.5059 45.8333 45.8334 36.5058 45.8334 25C45.8334 13.4941 36.5059 4.16666 25 4.16666C13.4941 4.16666 4.16669 13.4941 4.16669 25C4.16669 36.5058 13.4941 45.8333 25 45.8333Z" stroke="black" stroke-width="1.5" stroke-linecap="round" stroke-linejoin="round"/>
</g>
</svg>
