<svg width="50" height="50" viewBox="0 0 50 50" fill="none" xmlns="http://www.w3.org/2000/svg">
<g id="Icono/Mas">
<path id="Vector" d="M14.5833 26.0417C15.1586 26.0417 15.625 25.5752 15.625 25C15.625 24.4248 15.1586 23.9583 14.5833 23.9583C14.008 23.9583 13.5416 24.4248 13.5416 25C13.5416 25.5752 14.008 26.0417 14.5833 26.0417Z" fill="black" stroke="black" stroke-width="1.5" stroke-linecap="round" stroke-linejoin="round"/>
<path id="Vector_2" d="M25 26.0417C25.5752 26.0417 26.0417 25.5752 26.0417 25C26.0417 24.4248 25.5752 23.9583 25 23.9583C24.4248 23.9583 23.9584 24.4248 23.9584 25C23.9584 25.5752 24.4248 26.0417 25 26.0417Z" fill="black" stroke="black" stroke-width="1.5" stroke-linecap="round" stroke-linejoin="round"/>
<path id="Vector_3" d="M35.4167 26.0417C35.9919 26.0417 36.4583 25.5752 36.4583 25C36.4583 24.4248 35.9919 23.9583 35.4167 23.9583C34.8415 23.9583 34.375 24.4248 34.375 25C34.375 25.5752 34.8415 26.0417 35.4167 26.0417Z" fill="black" stroke="black" stroke-width="1.5" stroke-linecap="round" stroke-linejoin="round"/>
<path id="Vector_4" d="M25 45.8333C36.5058 45.8333 45.8333 36.5058 45.8333 25C45.8333 13.4941 36.5058 4.16667 25 4.16667C13.494 4.16667 4.16663 13.4941 4.16663 25C4.16663 36.5058 13.494 45.8333 25 45.8333Z" stroke="black" stroke-width="1.5" stroke-linecap="round" stroke-linejoin="round"/>
</g>
</svg>
