<svg width="50" height="50" viewBox="0 0 50 50" fill="none" xmlns="http://www.w3.org/2000/svg">
<g id="Icono/Perfil">
<path id="Vector" d="M25 4.16666C13.494 4.16666 4.16663 13.4941 4.16663 25C4.16663 36.5058 13.494 45.8333 25 45.8333C36.5058 45.8333 45.8333 36.5058 45.8333 25C45.8333 13.4941 36.5058 4.16666 25 4.16666Z" stroke="black" stroke-width="1.5" stroke-linecap="round" stroke-linejoin="round"/>
<path id="Vector_2" d="M8.89795 38.2202C8.89795 38.2202 13.5417 32.2917 25 32.2917C36.4584 32.2917 41.1023 38.2202 41.1023 38.2202" stroke="black" stroke-width="1.5" stroke-linecap="round" stroke-linejoin="round"/>
<path id="Vector_3" d="M25 25C28.4519 25 31.25 22.2019 31.25 18.75C31.25 15.2982 28.4519 12.5 25 12.5C21.5481 12.5 18.75 15.2982 18.75 18.75C18.75 22.2019 21.5481 25 25 25Z" stroke="black" stroke-width="1.5" stroke-linecap="round" stroke-linejoin="round"/>
</g>
</svg>
