<svg width="50" height="50" viewBox="0 0 50 50" fill="none" xmlns="http://www.w3.org/2000/svg">
<g id="Icono/Precio">
<path id="Vector" d="M6.25 42.5V7.5C6.25 6.80965 6.80965 6.25 7.5 6.25H42.5C43.1904 6.25 43.75 6.80965 43.75 7.5V42.5C43.75 43.1904 43.1904 43.75 42.5 43.75H7.5C6.80965 43.75 6.25 43.1904 6.25 42.5Z" stroke="black" stroke-width="1.5"/>
<path id="Vector_2" d="M31.25 17.7083C29.8229 16.2813 27.3098 15.2887 25 15.2265M25 15.2265C22.2519 15.1526 19.7917 16.3958 19.7917 19.7917C19.7917 26.0417 31.25 22.9167 31.25 29.1667C31.25 32.7313 28.2004 34.2629 25 34.1479M25 15.2265V11.4583M18.75 31.25C20.0927 33.0402 22.5892 34.0613 25 34.1479M25 34.1479V38.5417" stroke="black" stroke-width="1.5" stroke-linecap="round" stroke-linejoin="round"/>
</g>
</svg>
