<svg width="50" height="50" viewBox="0 0 50 50" fill="none" xmlns="http://www.w3.org/2000/svg">
<g id="Icono/Tareas">
<path id="Vector" d="M17.7084 8.33334H12.5C10.1989 8.33334 8.33337 10.1988 8.33337 12.5V41.6667C8.33337 43.9679 10.1989 45.8333 12.5 45.8333H25" stroke="black" stroke-width="1.5" stroke-linecap="round"/>
<path id="Vector_2" d="M32.2916 8.33334H37.5C39.8012 8.33334 41.6666 10.1988 41.6666 12.5V31.25" stroke="black" stroke-width="1.5" stroke-linecap="round"/>
<path id="Vector_3" d="M16.6666 13.3333V9.375C16.6666 8.79971 17.133 8.33334 17.7083 8.33334C18.2836 8.33334 18.7588 7.86675 18.8573 7.29996C19.166 5.5244 20.3624 2.08334 25 2.08334C29.6375 2.08334 30.8339 5.5244 31.1427 7.29996C31.2412 7.86675 31.7164 8.33334 32.2916 8.33334C32.8668 8.33334 33.3333 8.79971 33.3333 9.375V13.3333C33.3333 14.0237 32.7737 14.5833 32.0833 14.5833H17.9166C17.2263 14.5833 16.6666 14.0237 16.6666 13.3333Z" stroke="black" stroke-width="1.5" stroke-linecap="round"/>
<path id="Vector_4" d="M32.2916 42.7083L36.4583 46.875L46.875 36.4583" stroke="black" stroke-width="1.5" stroke-linecap="round" stroke-linejoin="round"/>
</g>
</svg>
