<svg width="50" height="50" viewBox="0 0 50 50" fill="none" xmlns="http://www.w3.org/2000/svg">
<g id="Icono/Temperatura">
<path id="Vector" d="M12.5 24.999C9.96994 26.8994 8.33337 29.9252 8.33337 33.3331C8.33337 39.086 12.9971 43.7498 18.75 43.7498C24.503 43.7498 29.1667 39.086 29.1667 33.3331C29.1667 29.9252 27.53 26.8994 25 24.999" stroke="black" stroke-width="1.5" stroke-linecap="round" stroke-linejoin="round"/>
<path id="Vector_2" d="M12.5 25V6.25H25V25" stroke="black" stroke-width="1.5" stroke-linecap="round" stroke-linejoin="round"/>
<path id="Vector_3" d="M25 6.25H29.1667" stroke="black" stroke-width="1.5" stroke-linecap="round" stroke-linejoin="round"/>
<path id="Vector_4" d="M25 12.5H29.1667" stroke="black" stroke-width="1.5" stroke-linecap="round" stroke-linejoin="round"/>
<path id="Vector_5" d="M25 18.75H29.1667" stroke="black" stroke-width="1.5" stroke-linecap="round" stroke-linejoin="round"/>
<path id="Vector_6" d="M39.5833 14.5833C41.8845 14.5833 43.75 12.7179 43.75 10.4167C43.75 8.11548 41.8845 6.25 39.5833 6.25C37.282 6.25 35.4166 8.11548 35.4166 10.4167C35.4166 12.7179 37.282 14.5833 39.5833 14.5833Z" stroke="black" stroke-width="1.5" stroke-linecap="round" stroke-linejoin="round"/>
<path id="Vector_7" d="M18.75 29.1667C16.4489 29.1667 14.5834 31.0321 14.5834 33.3333C14.5834 35.6346 16.4489 37.5 18.75 37.5C21.0513 37.5 22.9167 35.6346 22.9167 33.3333C22.9167 31.0321 21.0513 29.1667 18.75 29.1667ZM18.75 29.1667V12.5" stroke="black" stroke-width="1.5" stroke-linecap="round" stroke-linejoin="round"/>
</g>
</svg>
