<svg width="50" height="50" viewBox="0 0 50 50" fill="none" xmlns="http://www.w3.org/2000/svg">
<g id="Icono/Triste">
<path id="Vector" d="M17.7083 18.75C17.133 18.75 16.6666 18.2836 16.6666 17.7083C16.6666 17.133 17.133 16.6667 17.7083 16.6667C18.2836 16.6667 18.75 17.133 18.75 17.7083C18.75 18.2836 18.2836 18.75 17.7083 18.75Z" fill="black" stroke="black" stroke-width="1.5" stroke-linecap="round" stroke-linejoin="round"/>
<path id="Vector_2" d="M32.2917 18.75C31.7165 18.75 31.25 18.2836 31.25 17.7083C31.25 17.133 31.7165 16.6667 32.2917 16.6667C32.8669 16.6667 33.3333 17.133 33.3333 17.7083C33.3333 18.2836 32.8669 18.75 32.2917 18.75Z" fill="black" stroke="black" stroke-width="1.5" stroke-linecap="round" stroke-linejoin="round"/>
<path id="Vector_3" d="M25 45.8333C36.5058 45.8333 45.8333 36.5058 45.8333 25C45.8333 13.4941 36.5058 4.16666 25 4.16666C13.494 4.16666 4.16663 13.4941 4.16663 25C4.16663 36.5058 13.494 45.8333 25 45.8333Z" stroke="black" stroke-width="1.5" stroke-linecap="round" stroke-linejoin="round"/>
<path id="Vector_4" d="M15.625 32.2917C15.625 32.2917 18.75 28.125 25 28.125C31.25 28.125 34.375 32.2917 34.375 32.2917" stroke="black" stroke-width="1.5" stroke-linecap="round" stroke-linejoin="round"/>
</g>
</svg>
