<svg width="200" height="160" viewBox="0 0 200 160" fill="none" xmlns="http://www.w3.org/2000/svg">
<g id="Group">
<path id="Vector" d="M100.111 57.5946C100.067 48.3478 99.3211 39.0742 104.906 30.6215C113.871 17.0683 131.349 11.4829 147.706 17.2655C163.162 22.7283 171.912 37.8644 169.045 54.189C166.393 69.2611 152.44 80.4267 135.752 80.6825C127.786 80.8104 119.815 80.6771 111.844 80.7358C103.53 80.7997 100.376 83.7417 100.315 91.4803C100.26 99.0057 100.371 106.531 100.266 114.056C100.012 132.465 84.9201 146.125 65.1055 145.975C45.6003 145.826 31.0888 132.092 31.0004 113.705C30.912 94.2303 45.1418 80.5919 65.7297 80.464C73.6953 80.416 81.6665 80.5279 89.632 80.4107C96.3934 80.3147 99.8459 77.0264 100.072 70.7161C100.155 68.4457 100.106 66.1646 100.111 63.8889V57.5946Z" fill="#1B3A3E"/>
<path id="Vector_2" d="M200 128.793C200 146.026 183.525 160 163.195 160C142.865 160 126.389 146.026 126.389 128.793C126.389 111.554 142.865 97.5868 163.195 97.5868C183.525 97.5868 200 111.554 200 128.793ZM73.6195 31.2066C73.6195 48.4456 57.1441 62.4132 36.8141 62.4132C16.484 62.4132 0 48.4456 0 31.2066C0 13.9744 16.484 0 36.8141 0C57.1441 0 73.6195 13.9744 73.6195 31.2066Z" fill="#1B3A3E"/>
</g>
</svg>
